# xmcd
# 
# Track frame offsets:
#     150
#     17930
#     33562
#     47885
#     69702
#     93443
#     107333
#     127702
#     151094
#     176046
#     194131
#     209444
#     224866
#     237614
#     249860
#     264336
#     281919
#     304796
#     321082
#     340489
# 
# Disc length: 4718
# 
# Revision: 0
# Processed by: cddbd v1.5.2PL0 Copyright (c) Steve Scherf et al.
# Submitted via: BonkEnc v1.0
# 
DISCID=34126c14
DTITLE=Run-D.M.C. - The Original Rhymes ～Greatest Hits～
DYEAR=2002
DGENRE=Hip-Hop
TTITLE0=Bounce
TTITLE1=You Be Illin'
TTITLE2=Sucker MC's
TTITLE3=It's Like That
TTITLE4=King Of Rock
TTITLE5=It's Tricky
TTITLE6=Can You Rock It Like This
TTITLE7=Walk This Way (Ft. Aerosmith)
TTITLE8=Rock Box
TTITLE9=You Talk To Much
TTITLE10=Run's House
TTITLE11=Peter Piper
TTITLE12=My Adidas
TTITLE13=Beats To The Rhyme
TTITLE14=Jam Master Jay
TTITLE15=Hard Times
TTITLE16=Down With The King
TTITLE17=Mary Mary
TTITLE18=Ghostbusters
TTITLE19=Christmas In Hollis
EXTD=
EXTT0=
EXTT1=
EXTT2=
EXTT3=
EXTT4=
EXTT5=
EXTT6=
EXTT7=
EXTT8=
EXTT9=
EXTT10=
EXTT11=
EXTT12=
EXTT13=
EXTT14=
EXTT15=
EXTT16=
EXTT17=
EXTT18=
EXTT19=
PLAYORDER=
